<?xml version="1.0" encoding="UTF-8"?>
<svg id="Layer_1" data-name="Layer 1" xmlns="http://www.w3.org/2000/svg" viewBox="0 0 195.97 145">
  <defs>
    <style>
      .cls-1 {
        font-family: AbrilFatface-Regular, 'Abril Fatface';
        font-size: 9px;
      }
    </style>
  </defs>
  <path d="m167.14,74.11c-.33,17-6,31.9-16.75,44.83-9.8,11.78-22.16,19.67-36.98,23.61-8.8,2.34-17.74,3.06-26.79,1.9-23.19-2.98-40.93-14.52-53.46-34.16-2.72-4.27-4.83-8.87-6.52-13.65-.22-.61-.45-1.21-.72-1.94-.96,3.05-2.06,5.91-2.37,9.1-1.15-.51-1.15-1.42-1.14-2.28,0-3.54,0-7.08.08-10.62.02-1.06-.23-1.73-1.24-2.24-.79-.4-1.97-.81-1.07-2.21.63-.98,1.31-.29,2.06-.2.44-.93.36-1.69-.52-2.32-2.03-1.47-4.04-2.95-6.05-4.44-1.41-1.05-2.69-2.23-3.57-3.78-.22-.4-.56-.84-.18-1.3.31-.38.77-.29,1.19-.23,1.77.25,3.32,1.05,4.79,2.01,1.5.98,2.97,1.99,4.66,3.12.29-1.4.13-2.65.07-3.87-.46-8.77.67-17.35,3.57-25.61C34.52,26.1,50.66,10.01,74.83,3.11c24.96-7.13,47.81-1.91,67.63,15,12.97,11.07,20.67,25.32,23.73,42.07.83,4.56,1.13,9.17.95,13.94m-45.47,28.42c-.42-.08-.83-.16-1.25-.25-7.63-1.65-15.36-2.37-23.15-2.68-1.25-.05-1.63.36-1.61,1.6.07,4.3.04,8.59.02,12.89,0,.76.03,1.41.97,1.61.42.09.6.4.5.86-.08.35-.17.69-.59.66-1-.07-.87.62-.88,1.23-.01,1.84-.01,3.68-.01,5.52,0,5.85.01,11.71.01,17.56,0,.65-.02,1.32.92,1.21,1.81-.21,3.63-.22,5.38-1.03,4.73-2.19,8.34-5.65,11.36-9.77,5.73-7.81,9.13-16.67,11.59-25.95.66-2.5.64-2.5-1.94-3.14-.37-.09-.73-.18-1.33-.34m-86.92,6.15c.91,1.42,1.83,2.83,2.83,4.39,5.45-4.39,11.62-7.06,18.05-9.39-.54-.55-.85-1.01-.37-1.59.44-.52.92-.16,1.26.07,1.47.98,2.87.37,4.33,0,1.16-.3,1.36-.95,1.12-2-.3-1.33-.47-2.7-.81-4.02-.45-1.73-.09-3.7-1.11-5.21-3.29-4.89-4.79-10.44-6.16-16.03-.31-1.27-.79-1.66-2.07-1.64-5.62.07-11.24.03-16.86.04-2.98,0-5.95,0-8.93.01-.53,0-1.22-.14-1.23.75-.05,2.21.08,4.4.47,6.55.62.14,1.01-.05,1.34-.44-.18-.66-1.4-.85-.74-1.88.68-1.05,1.41-1.17,2.62.06.82.84,1.48.82,2.46.44,3.2-1.27,6.44-2.46,9.66-3.67.92-.35,1.84-.61,3,.15-1.49.71-2.69,1.5-3.87,2.34-1.06.75-1.98,1.79-3.11,2.34-1.26.61-1.94,1.99-3.4,2.26-.3.06-.64.46-.55.9.09.43-.12.48-.45.68-1.34.78-1.35,1.46-.1,2.38,2.66,1.96,5.43,3.79,7.84,6.06.76.72,1.48.84,2.43.51,1.2-.41,2.44-.72,3.68-1.04.58-.15,1.22-.1,1.5.47.34.68-.41.84-.77,1.13-1.09.87-2.41,1.42-3.36,2.41.1.56.73.74.65,1.29-.51.33-1.01-.37-1.56.06-.64,1.56-.66,3.41-1.53,5.04-1.13-.41-1.23-1.26-1.32-2.1-.11-1.13-.23-2.25-.25-3.38-.02-.87-.42-1.35-1.14-1.78-2.12-1.23-4.21-2.53-6.3-3.81-1.15-.71-2.29-1.44-3.4-2.14-1,.98-1.39,2.31-1.06,3.46,1.67,5.69,4.01,11.09,7.18,16.35m89.23-34.34c-.02-.98-.65-1.07-1.44-1.07-8.45.02-16.89.03-25.34-.02-1.18,0-1.55.35-1.54,1.52.05,7.27.05,14.54.02,21.8,0,1.1.32,1.48,1.45,1.48,3.87-.01,7.72.35,11.57.77,5.39.59,10.74,1.46,15.99,2.88.96.26,1.34,0,1.56-.96.58-2.53.88-5.1,1.3-7.66.09-.55.13-1.13-.17-1.66-1.39-2.46-.95-4.74.45-7.07,1.65-2.74,1-5.25-1.67-7.09-1-.69-1.88-1.44-2.17-2.92m-42.63-28.07c-5.84-.71-11.62-1.67-17.31-3.19-.59,1.12-.59,2.22-.8,3.27-1.02,5.28-1.65,10.61-2.11,15.97-.09,1.05.3,1.36,1.32,1.47,2.86.3,5.72.73,8.45,1.68,3.48,1.21,7.02,2.36,9.24,5.65.44.66,1.12.61,1.78.61,3.59.01,7.18-.04,10.76.07,1.27.04,1.51-.4,1.5-1.52-.05-7.13-.09-14.26-.03-21.39.01-1.42-.43-1.99-1.81-1.97-3.59.06-7.16-.35-10.99-.66m-30.35,81c10.94,8.96,24.98,13.85,33.45,14.51-3.44-2.31-6.33-5.07-8.78-8.28-3.3-4.31-5.81-9.14-8.78-13.67-2.16-3.29-3.46-7.13-4.4-11-.41-1.67-.59-3.4-.89-5.18-.58-.01-1.16.05-1.45.48-.48.73-1.01.86-1.79.58-.28-.1-.66-.02-.97.08-6.33,2.03-12.36,4.67-17.75,8.63-.91.67-.96,1.14-.27,2.02,3.4,4.33,7.19,8.26,11.64,11.83m27.15-17.49c.45,1-.03,2.03.09,3.06.26,2.3.7,4.56,1.12,6.83.49,2.64-.75,4.61-3.3,5.47-1.2.41-2.41.21-3.8.22,3.12,5.57,6.64,10.66,11.9,14.27,2.46,1.69,5.05,3.08,8.21,3.04,1.72-.02,1.73.12,1.74-1.62,0-7.55-.01-15.1.02-22.65,0-1.08-.05-1.98-1.41-2.13-.48-.05-.72-.4-.6-.93.12-.55.5-.62.97-.55.27.04.55.19.89-.04.03-.12.12-.29.12-.47.01-4.53,0-9.06.03-13.59,0-.9-.43-1.09-1.23-1.11-3.07-.08-6.12.23-9.19.33-.47.02-1.12.02-1.21.54-.27,1.64-1.45,2.43-2.69,3.25-.64.42-.94,1.17-1.13,1.91-.33,1.28-.48,2.59-.53,4.16m50.15-5.56c-.92-.35-1.31-.04-1.54.94-.91,3.81-2.04,7.56-3.44,11.22-.48,1.26-.96,2.52-1.49,3.89,1.2.15,2.21.3,3.24.41.53.06,1.11.05,1.07.81-.05.8-.65.82-1.24.76-.8-.08-1.61-.11-2.39-.29-1.06-.24-1.62.1-2.06,1.1-1.12,2.5-2.47,4.89-3.98,7.18-2.97,4.52-6.49,8.53-11.05,11.57,14.54-2.18,27.05-8.41,37.96-18.63-.91-.04-1.5-.06-2.1-.1-.44-.02-.7-.23-.72-.7-.02-.51.21-.82.73-.83.85-.02,1.7-.02,2.55-.03.52,0,1.08.06,1.48-.34,1.75-1.77,3.45-3.58,4.87-5.69-1.34-1.38-2.81-2.4-4.3-3.39-5.36-3.56-11.27-5.9-17.57-7.89M74.87,5.27c-14.26,4.37-25.98,12.4-35.3,24.17.56.49.93.85,1.32,1.17,5.07,4.17,10.95,6.81,17.06,9.03,1.3.47,2.5.95,3.3-.74.13-.27.47-.5.76-.61,1.44-.56,1.94-1.74,2.34-3.11,2.4-8.16,5.59-15.99,10.82-22.75,1.86-2.41,1.89-4.96,2.34-7.65-.94-.1-1.67.25-2.65.51m8.78,71.27c-1.27-.47-2.35-1.23-3.21-2.26-.63-.76-1.35-1.02-2.33-1.02-5.2.04-10.39.05-15.59,0-1.27-.01-1.74.33-1.72,1.67.04,3.92.43,7.82.64,11.73.12,2.23.57,4.28,2.3,6.02,1.63,1.63,1.76,3.76.91,5.94-.31.8-.8,1.6-.62,2.61.23,0,.41.04.58,0,4.12-1.06,8.31-1.79,12.53-2.21,2.57-.26,4.68-.96,6.65-2.77,1.66-1.52,2.4-2.99,1.96-5.18-.43-2.18.1-4.02,1.9-5.57,2.89-2.49,1.94-6.9-1.64-8.17-.71-.25-1.43-.47-2.35-.79m67.1,37.32c.92.55,1.04-.39,1.32-.79,3.92-5.49,6.98-11.43,9.16-17.81,2.26-6.64,3.51-13.48,3.74-20.5.03-1.08-.25-1.52-1.42-1.5-3.16.07-6.32.05-9.48,0-.84-.01-1.31.31-1.63,1.05-.82,1.86-1.38,3.81-1.8,5.8-1.4,6.59-3.38,12.95-7.1,18.66-2.13,3.26-5.01,5.19-8.98,5.31-2.4.07-3.6-1.17-3.44-3.57.04-.61.11-1.23.09-1.84-.07-1.72-.84-3.11-2.19-4.5-.45,2.34-.78,4.47-1.28,6.56-.3,1.25-.05,1.77,1.27,2.16,7.83,2.34,15.25,5.52,21.73,10.97m-55.07-77.39c0,2.5.03,5-.02,7.5-.02,1,.27,1.46,1.36,1.45,3.54-.04,7.07-.12,10.6-.43.6-.05,1.27-.06,1.73-.52,1.08-1.07,2.35-1.86,3.86-2.58-1.49-.66-2.37-1.64-2.78-3.02-.8-2.67.74-4.9,3.59-5.17.7-.07,1.53.02,1.83-.77.28-.73-.24-1.36-.65-1.93-.65-.92-1.67-1.37-2.57-1.95-3.09-2-3.19-4.73-.24-6.95.56-.42,1.17-.81,1.81-1.1,1.66-.75,3.03-.34,4.04,1.19.47.71.88,1.47,1.31,2.21-2.14-5.21-4.88-10.04-8.78-14.31-.41.58-.7,1-.99,1.42-1.23,1.71-2.76,3.1-4.92,3.25-3.24.23-5.79,1.78-8.23,3.72-.72.57-.97,1.13-.97,2.02.04,5.24.02,10.48.02,16m46.54,35.27c2.64,0,5.29-.06,7.93.03,1.32.04,2.04-.42,2.32-1.7.25-1.16.79-2.16,2.01-2.53,1.07-.32,1.83-.99,1.85-2.06.02-1.15-1.17-1.05-1.9-1.28-2.37-.75-4.14-2.02-4.62-4.64-.11-.61-.42-1.2-.93-1.55-2.64-1.87-3.73-4.6-4.55-7.58-.72-2.59-2.59-4.2-5.16-4.99-1.09-.34-2.05-.22-2.87.61-.8.82-1.69.9-2.71.44-1.92-.87-3.95-1.5-5.82-2.83,0,.35-.03.53,0,.7,1.79,8.61,2.68,17.31,2.77,26.09.01,1.01.41,1.3,1.35,1.29,3.35-.03,6.7,0,10.34,0m-59.37-52.18c-2.02,2.77-1.74,5.6-.22,8.47.11.2.15.45.21.67.59,2.21-.02,4.13-1.59,5.71-1.3,1.32-3,1.95-4.79,2.26-3.2.56-6.42.98-9.62,1.56-2.04.37-2.47,1.08-2.28,3.3.2.07.41.18.64.23,9.04,2.31,18.24,3.43,27.56,3.63,1.22.03,1.37-.57,1.37-1.57-.03-7.36-.01-14.72-.02-22.09,0-.41.1-.85-.2-1.26-.12-.02-.25-.06-.38-.05-5.08.43-8.03-3.39-6.25-8.09.08-.22.18-.44.24-.67.46-1.63-.15-2.89-1.71-3.56-.65-.28-1.42-.41-1.93-.84-.9-.76-1.49-.6-2.26.17-3.22,3.25-3.52,2.54-.61,6.42,1.21,1.61,2.26,3.28,1.88,5.67m46.1,49.77c-.19-3.39-.3-6.78-.59-10.16-.41-4.79-1.16-9.53-2.03-14.26-.17-.91-.58-1.29-1.57-1.03-4.38,1.16-8.87,1.77-13.35,2.32-1.08.13-1.7.6-2.16,1.51-1.8,3.56-2.71,7.32-2.54,11.31.2,4.65,3.79,8.23,8.45,8.41.99.04,1.98,0,2.97.05,2.69.15,5.29.54,6.94,3.06.71,1.08,2,1.55,3.24,1.12,1.11-.39.46-1.37.63-2.34m21,6.54c.23-.79.74-1.51.71-2.44-.29-.06-.51-.14-.73-.14-6.04,0-12.08,0-18.12-.02-1.02,0-1.29.46-1.28,1.39.05,4.47-.14,8.94-.85,13.36-.38,2.33,0,4.25,1.57,6.11,1.47,1.74,2.07,3.86,1.62,6.22-.27,1.46.28,1.96,1.8,1.92,3.01-.08,5.39-1.39,6.98-3.91,1.91-3.03,3.71-6.13,4.86-9.56,1.4-4.16,2.06-8.52,3.42-12.92m-100.82-15.31c.24.08.59.33.54-.21-.05-.5-.01-1.1-.7-1.24-.55-.11-1.12-.14-1.67-.26-2.51-.55-4.34-2.51-4.51-4.81-.2-2.78,1.05-4.61,3.81-5.56,2.6-.89,5.25-1.5,7.99-1.73,2.64-.22,4.51-2.17,4.72-4.97-3.66-1.3-7.32-2.66-10.82-4.42-3.55-1.78-6.84-3.94-9.95-6.6-3.59,4.83-6.46,9.9-8.65,15.35-.13.32-.18.62-.02.96.74,1.56,1.58,2.99,3.24,3.78,2.79,1.31,3.24,2.18,2.87,5.2-.27,2.21.59,2.99,2.86,2.67,1.3-.18,2.6-.62,3.92-.21,2.07.64,4.13,1.32,6.35,2.06m94.21-38.68c-2.87-2.74-5.92-5.26-9.24-7.45-1.74-1.15-2.94-1.09-4.52.33-.93.83-1.94,1.47-3.11,1.91-3.01,1.14-3.41,2.2-1.97,5.15.1.21.21.42.31.63,1.06,2.24.82,3.17-1.29,4.42-.56.33-.73.64-.49,1.24.43,1.1.85,2.2,1.23,3.31.22.63.61.87,1.26.89,1.66.07,3.25.52,4.81,1.07,1.56.55,3.13,1.08,4.8,1.13,1.75.05,3.25.57,4.24,2.1.42.64.88.71,1.55.39,3.24-1.55,6.38-3.26,9.28-5.4.89-.65.81-1.15.18-1.93-2.15-2.69-4.44-5.26-7.05-7.81M34.29,56.3c0-.52.01-1.04.02-1.56.01-.68,0-1.44-.71-1.72-1.93-.76-3.5-1.97-4.54-3.74-.59.37-.65.82-.78,1.21-2.05,6.31-3.3,12.76-3.46,19.4-.04,1.82-.02,1.84,1.77,1.84,7.55,0,15.09,0,22.64,0,1.04,0,2.08-.02,3.11,0,.82.01,1.21-.33,1.23-1.17.01-.65.13-1.29.22-2.13-2.29-.05-3.8-1.11-3.93-3.42-.12-2.25-1.57-3.03-3.39-3.59-2.66-.83-5.28-1.35-8.16-.97-2.91.38-4-.91-4.02-4.14m72.05,7.64c-1.75-3.15-1.71-6.49-1.06-9.91.48-2.5,1.31-4.88,2.38-7.29-.39-.06-.62-.13-.84-.12-3.35.15-6.69.34-10.03.45-1.14.04-1.11.75-1.11,1.54,0,7.18.01,14.35-.04,21.53,0,1.24.37,1.61,1.62,1.61,8.31-.05,16.61-.02,24.92-.03.4,0,.86.14,1.22-.32-.46-1.04-1.44-1.4-2.4-1.75-1.65-.59-3.36-.34-5.06-.37-4.08-.06-7.29-1.69-9.61-5.34m51.5-22.28c-1.65-3.28-3.43-6.48-5.74-9.52-2.99,2.29-6.13,4.14-9.35,5.93,2.59.13,3.58,1.83,4.17,3.92.2.72.25,1.48.36,2.23.26,1.72.1,3.52.87,5.13,1.16,2.42,2.38,4.82,3.62,7.21.67,1.29,1.82,1.85,3.26,1.86,2.41.01,4.47-1.01,6.52-2.1,1.04-.55,1.29-1.26.94-2.43-1.22-4.13-2.66-8.16-4.66-12.21m-78.2-17.08c-.38-1.48.03-2.79.84-4.03.75-1.15,1.03-2.44.34-3.62-.98-1.69-2.18-3.25-3.41-5.05-5.76,7.47-9.24,15.7-11.78,24.64,2.6-.37,4.87-.72,7.15-1.01,1.78-.23,3.56-.43,5.24-1.11,2.89-1.18,3.85-3.33,2.82-6.25-.39-1.11-.78-2.23-1.2-3.57m-10.85,83.75c-1.21.58-2.11-.87-3.42-.51,1.39,4.93,2.98,9.75,5.31,14.27.76,1.48,3.48,1.97,5.26,1.2,1.48-.64,2.02-1.94,1.64-3.92-.31-1.62-.85-3.23-.88-4.85-.04-2.1-.42-3.68-2.85-3.96-.44-.05-.72-.41-.54-.96.2-.62.62-.61,1.12-.46.58.17,1.11.52,1.9.44.29-1.72.32-3.5.88-5.21.58-1.76,2.62-2.24,3.5-4.07-.61,0-.84-.02-1.06,0-4.64.47-9.24,1.23-13.8,2.19-1.76.37-1.77.4-1.36,2.13.15.62.43,1.01,1.02,1.23.93.35,1.84.72,2.77,1.07.61.23,1.01.55.51,1.42m-6.97-63.07c.17-.64.34-1.27.49-1.92.09-.36-.04-.65-.41-.79-.4-.16-.62.04-.78.38-.18.38-.36.77-.53,1.16-1.32,2.96-3.47,4.51-6.83,4.56-2.51.03-4.91.86-7.26,1.76-1.23.47-1.81,1.45-1.91,2.74-.18,2.21,1.36,3.93,3.76,4.06,1.45.08,2.63.44,2.97,2.04.57,2.73,2.91,4.02,4.51,5.94.91-.58,1.63-1.17,2.53-1.3.97-.15,1.14-.7,1.21-1.57.44-5.64,1.1-11.25,2.25-17.04m28.86,38.89c-.33.95-.78,1.9-1.6,2.46-1.46.99-1.79,2.32-1.62,3.93.07.7.01,1.42.07,2.12.16,1.87-.57,3.29-2.05,4.4-.42.31-.97.52-1.24,1.3,2.8-.27,5.43-.42,8.06-.3,1.44.07,1.85-.42,1.84-1.85-.05-7.12-.03-14.25.03-21.37.01-1.24-.36-1.76-1.62-1.58-.42.06-.85,0-1.27,0-2.99,0-5.98,0-9.35,0,1.21,1.27,2.34,1.77,3.58,2.11,4.52,1.23,6.2,4,5.17,8.78m28.17-65.24c.91,1.86,1.82,3.73,2.73,5.59.25.51.41,1.08,1.22.76.8-.32.95-.87.65-1.58-.25-.61-.58-1.19-.85-1.79-1.4-3.17-.51-5.43,2.72-6.62,1.9-.7,3.29-2.04,4.96-3.28-4.57-2.56-9.11-4.73-13.95-6.23-2.72-.84-2.69-.84-4.2,1.48-.54.83-.57,1.44.17,2.22,2.58,2.78,4.63,5.95,6.54,9.45M100.35,2.79c-1.09-.4-2.23-.33-3.36-.39-.98-.06-1.33.32-1.32,1.3.04,3.58,0,7.17.03,10.75,0,.73-.22,1.49.11,2.22.6-.04.94-.46,1.34-.77,1.98-1.54,4.18-2.58,6.7-2.78,2.18-.17,3.63-1.32,4.82-3.05.7-1,.68-1.66-.28-2.48-2.36-2.01-4.91-3.66-8.04-4.81m58.04,68.99c1.6-.01,3.21-.1,4.81,0,1.32.07,1.87-.3,1.79-1.72-.18-3.25-.51-6.47-1.06-9.67-.17-.97-.14-2.05-.86-2.83-3.67,1.77-7.18,3.95-11.43,1.74.21,1.58,1.08,2.42,2.36,2.89.88.33,1.79.6,2.66.95,1.26.51,1.77,1.52,1.43,2.83-.36,1.38-1.02,2.56-2.48,3.02-1.35.43-1.54,1.43-1.51,2.81,1.4,0,2.71,0,4.31,0M88.32,15.17c.36,2,2.23,3.62,4.13,3.55.84-.03,1.65-.21,1.65-1.31,0-4.67,0-9.35,0-14.02,0-.44-.05-.94-.61-.94-1.33,0-2.7-.38-3.83.86-1.04,1.15-2.41,1.79-3.99,1.94-.31.03-.67.03-.81.47.41.5,1.04.57,1.59.8,2.48,1.02,3.55,3.35,2.68,5.88-.29.84-.79,1.62-.82,2.77m32.51,19.03c.46-.88,2.07-.73,2-1.93-.06-.95-.6-1.87-.93-2.8-.19-.53-.39-1.06-.59-1.59-.14-.36-.29-.73-.7-.84-1.82-.49-2.76-1.84-3.52-3.43-.28-.6-.7-1.15-1.45-1.22-.92-.08-3.17,1.63-3.47,2.65-.39,1.36.54,2,1.5,2.56,1.35.8,2.63,1.66,3.44,3.07,1.42,2.47.61,4.21-2.19,4.64-.33.05-.65.14-.98.17-1.03.08-1.68.59-1.84,1.62-.15.99,0,1.94.86,2.54.86.6,1.71.21,2.51-.27.55-.32.9-.82,1.25-1.33.56-.83,1.19-1.63,2.12-2.03.83-.36,1.36-.98,2-1.82m-52.46,32.36c-2.37-.54-4.75-.97-7.18-1.04-.54,1.59-.24,3.11-.37,4.6-.11,1.23.32,1.65,1.58,1.64,4.8-.06,9.61-.02,14.41-.03.38,0,.85.18,1.23-.44-2.6-2.66-6.04-3.64-9.67-4.72m72.21-27.01c-.65-.23-1.27-.13-1.91.11-1.89.73-3.8,1.4-5.71,2.08-1,.35-2.02.65-3.42,1.09,1.8.76,3.22,1.35,4.63,1.96.45.19.81.09,1.16-.23,1.34-1.24,2.94-1.2,4.52-.72,4.01,1.21,5.97,4.21,6.81,8.1.35,1.62,1.1,2.92,2.75,4.01-.47-.96-.82-1.67-1.16-2.38-1.04-2.15-2.36-4.2-2.49-6.7-.07-1.27-.18-2.54-.39-3.79-.41-2.5-1.04-3.04-3.59-3.29-.33-.03-.65-.12-1.19-.22m-8.03-3.66c-2.4-.47-4.58-1.93-7.35-1.66.47,1.62.77,3.11,1.32,4.49.92,2.33,1.94,2.76,4.31,2.03,1.44-.44,2.88-.91,4.3-1.41.99-.36,2.09-.54,2.93-1.37-.38-.9-1.01-1.4-1.91-1.54-1.12-.17-2.24-.32-3.59-.53m-72.87,48.33c-.14-2.83-.32-5.65-.41-8.48-.08-2.54-.04-2.49-2.57-2.48-1.17,0-1.39.46-1.09,1.48.41,1.4.73,2.83,1.16,4.22.8,2.59,1.52,5.22,3.07,7.56-.04-.69-.08-1.37-.16-2.31m64.81-44.12c-.86-.11-1.7-.02-2.51.3-2.98,1.17-5.96,2.36-8.94,3.55-.18.07-.48.09-.46.49,4.34-.57,8.67-1.1,12.93-2.36-.09-.82,0-1.55-1.03-1.98m-67.53,31.63c.76-.22,2.06.58,2.21-.77.2-1.75.05-3.54.05-5.29-.66-.21-1.11.1-1.52.39-1.37.99-1.97,2.42-2.35,4.04-.31,1.31.08,1.77,1.61,1.63m67.23-35.26c-.25-.59-.19-1.31-1.01-2.13-1.49,2.51-4.59,3.25-5.95,6.11,2.42-1.06,4.66-2.18,7.18-2.28.15-.6-.02-1.04-.22-1.69M105.87,3.71c1.49.97,2.81,2.15,4.21,3.33.62-.84,1.31-1.43,1.46-2.51-1.93-.73-3.92-1.02-5.91-1.23-.31-.03.05.21.24.41m-23.91-.16c-2.43.52-3.07,1.4-2.84,4.01,1.76-1.42,3.33-3,5.55-4.36-1.08.14-1.78.23-2.71.34m46.99,72.81c0-.47.05-.94,0-1.41-.04-.53.27-1.27-.38-1.53-.79-.31-1.67-.2-2.5-.03-.3.06-.32.42-.32.72.02.96,2.09,2.56,3.19,2.25m-75.93-9.81c.39-.04.87.17,1.07-.47-.63-1.14-1.78-1.83-2.67-2.78.28,1.17-.24,2.67,1.6,3.25m9.55,28.26c.13.86.26,1.72.45,2.95.74-1.48.42-2.47-.29-3.39-.09-.12-.16.14-.15.43Z"/>
  <path d="m177.93,86.62c-.69-.9-1.32-1.73-1.95-2.56-.29-.37-.45-.72,0-1.1.46-.4.86-.31,1.21.14.7.89,1.39,1.79,2.07,2.69.3.39.54.78,0,1.21-.59.47-.94.17-1.33-.38Z"/>
  <path d="m3.18,64.12c-.44-.89-.83-1.69-1.21-2.49-.22-.47-.29-.9.33-1.14.58-.23.87.07,1.1.54.39.8.81,1.58,1.17,2.39.24.54.98,1.14.07,1.67-.91.53-1.05-.4-1.46-.97Z"/>
  <path d="m21.32,33.46c.66-.05,1.38-.52,1.55.5.14.85-.54.87-1.05,1.02-.95.28-1.91.53-2.87.78-.52.13-.94.05-1.08-.57-.12-.54.17-.79.63-.92.91-.26,1.81-.52,2.83-.81Z"/>
  <path d="m8.95,72.26c-.61-.73-1.15-1.39-1.69-2.04-.35-.43-.65-.85-.02-1.31.6-.44.94-.05,1.29.37.54.65,1.11,1.28,1.63,1.96.36.47,1.18.91.42,1.64-.8.76-1.11-.16-1.63-.62Z"/>
  <path d="m1.68,54.79c.14.7.03,1.14-.68,1.23-.69.08-.75-.43-.84-.89-.22-1.12-.18-2.25-.09-3.38.04-.48.17-.96.84-.88.58.07.75.41.73.98-.04.94,0,1.88.03,2.94Z"/>
  <path d="m182.4,91.07c.66,1.14,1.11,2.27,1.51,3.43.18.53.31,1.03-.35,1.3-.7.29-.9-.23-1.1-.73-.38-.96-.77-1.91-1.16-2.87-.44-1.07,0-1.38,1.09-1.13Z"/>
  <path d="m9.45,39.74c-.91-.66-.72-1.19.09-1.63.95-.51,1.9-1.02,2.85-1.53.47-.25.87-.29,1.15.3.28.59-.01.86-.48,1.1-1.17.59-2.33,1.18-3.6,1.75Z"/>
  <path d="m3.74,43.1c.28-.32.48-.59.73-.81.29-.25.6-.24.89.03.27.25.4.54.16.87-.75,1.03-1.5,2.05-2.27,3.07-.33.43-.73.35-1.12.07-.43-.31-.24-.7-.04-1,.5-.74,1.06-1.44,1.66-2.24Z"/>
  <path d="m29.26,32.01c.72.05.99.41.87.95-.17.74-.87.58-1.4.64-.48.06-1.07.29-1.24-.49-.11-.49,0-.85.54-.95.37-.07.74-.1,1.23-.15Z"/>
  <path d="m172.43,78.01c.37.48,1.1.75.55,1.44-.25.31-.61.55-.96.22-.52-.49-1.5-.86-1.24-1.68.33-1.04,1.03-.62,1.66.03Z"/>
  <path d="m106.58,118.1c.24.93.04,1.41-.94,1.19-1.1-.24-2.21-.46-3.32-.7-.45-.1-.82-.29-.7-.86.12-.57.51-.78,1.05-.65,1.28.3,2.56.62,3.91,1.02Z"/>
  <path d="m113.57,120.71c-.63-.1-1.15-.15-1.65-.26-.45-.09-.79-.33-.69-.88.1-.5.38-.72.91-.63,1.16.19,2.32.35,3.48.54.55.09.82.42.71,1-.11.58-.51.59-.97.51-.56-.1-1.12-.17-1.79-.29Z"/>
  <path d="m46.14,98.23c.08-.18.11-.29.18-.33.61-.35,4.59,1.28,4.71,1.97.09.51-.14.94-.7,1.02-.68.1-3.93-1.9-4.19-2.65Z"/>
  <path d="m87.68,113.69c-.06.7-.31,1.14-.99.95-1.18-.32-2.35-.69-3.51-1.06-.48-.15-.66-.48-.47-.99.16-.43.47-.61.88-.46,1.36.49,2.86.56,4.09,1.56Z"/>
  <path d="m131.17,121.35c1.29-.02,2.47-.02,3.64.04.58.03,1.17.16,1.09.96-.08.74-.64.69-1.17.66-1.03-.06-2.06-.08-3.09-.2-.96-.11-1.21-.61-.47-1.46Z"/>
  <text class="cls-1" transform="translate(150.87 124.69) rotate(-6.7) scale(1.14 1)"><tspan x="0" y="0">S</tspan></text>
  <text class="cls-1" transform="translate(157.47 123.8) rotate(-13.59) scale(1.14 1)"><tspan x="0" y="0">i</tspan></text>
  <text class="cls-1" transform="translate(161.03 123) rotate(-20.27) scale(1.14 1)"><tspan x="0" y="0">x</tspan></text>
  <text class="cls-1" transform="translate(167.1 120.63) rotate(-25.96) scale(1.14 1)"><tspan x="0" y="0"> </tspan></text>
  <text class="cls-1" transform="translate(169.22 119.72) rotate(-32.15) scale(1.14 1)"><tspan x="0" y="0">T</tspan></text>
  <text class="cls-1" transform="translate(175.4 115.72) rotate(-39.99) scale(1.14 1)"><tspan x="0" y="0">r</tspan></text>
  <text class="cls-1" transform="translate(179.57 112.15) rotate(-45.4) scale(1.14 1)"><tspan x="0" y="0">i</tspan></text>
  <text class="cls-1" transform="translate(182.18 109.56) rotate(-51.2) scale(1.14 1)"><tspan x="0" y="0">p</tspan></text>
  <text class="cls-1" transform="translate(186.2 104.45) rotate(-57.55) scale(1.14 1)"><tspan x="0" y="0">s</tspan></text>
</svg>